<svg xmlns="http://www.w3.org/2000/svg" xmlns:xlink="http://www.w3.org/1999/xlink" width="381" height="121" viewBox="0 0 381 121">
  <defs>
    <clipPath id="clip-path">
      <rect width="381" height="121" fill="none"/>
    </clipPath>
  </defs>
  <g id="Componente_1_1" data-name="Componente 1 – 1" clip-path="url(#clip-path)">
    <g id="Grupo_2" data-name="Grupo 2">
      <circle id="Elipse_1" data-name="Elipse 1" cx="60.5" cy="60.5" r="60.5" fill="#82ddab"/>
      <g id="recipe" transform="translate(19 22)">
        <path id="Trazado_1" data-name="Trazado 1" d="M37.371,447.385v5.8a.9.9,0,0,0,.491.8.938.938,0,0,0,.948-.054l3.429-2.3,3.832,2.383a.937.937,0,0,0,.935.029.9.9,0,0,0,.477-.788v-5.87Z" transform="translate(-31.38 -378.052)" fill="#ff3d6c"/>
        <path id="Trazado_2" data-name="Trazado 2" d="M353.42,244.966h-8.5v31.363a1.089,1.089,0,0,1-.882,1.06v.021h8.348a1.092,1.092,0,0,0,1.1-1.081V244.959C353.462,244.961,353.442,244.966,353.42,244.966Z" transform="translate(-288.887 -208.077)" fill="#b2b4ce"/>
        <path id="Trazado_3" data-name="Trazado 3" d="M344.921,245v31.363a1.089,1.089,0,0,1-.882,1.06v.021h4.189a1.092,1.092,0,0,0,1.1-1.081V245Z" transform="translate(-288.887 -208.111)" fill="#cfcfd9"/>
        <path id="Trazado_4" data-name="Trazado 4" d="M358.038,171.309h-8.5V182.53h8.5a.8.8,0,0,0,.8-.8V170.7a.748.748,0,0,0-.01-.1A.8.8,0,0,1,358.038,171.309Z" transform="translate(-293.505 -145.641)" fill="#ffcb00"/>
        <path id="Trazado_5" data-name="Trazado 5" d="M358.038,99.092h-8.5v11.834h8.5a.8.8,0,0,0,.8-.8V99.1a.792.792,0,0,0-.113-.4A.8.8,0,0,1,358.038,99.092Z" transform="translate(-293.505 -85.258)" fill="#ff5e97"/>
        <path id="Trazado_6" data-name="Trazado 6" d="M61.235,22.387H9.694A2.184,2.184,0,0,0,7.5,24.549V88.355a2.184,2.184,0,0,0,2.194,2.162H61.235a1.092,1.092,0,0,0,1.1-1.081V23.468A1.092,1.092,0,0,0,61.235,22.387Z" transform="translate(-6.298 -21.185)" fill="#f6b245"/>
        <path id="Trazado_7" data-name="Trazado 7" d="M355.194,22.387h-8.579a.794.794,0,0,0-.463.15,1.08,1.08,0,0,1,.543.931v11.55h8.5a.8.8,0,0,0,.8-.8V23.189A.8.8,0,0,0,355.194,22.387Z" transform="translate(-290.661 -21.185)" fill="#82ddab"/>
        <path id="Trazado_8" data-name="Trazado 8" d="M349.334,34.216V23.189a.8.8,0,0,1,.8-.8h-3.521a.794.794,0,0,0-.463.15,1.08,1.08,0,0,1,.543.931v11.55h3.44A.8.8,0,0,1,349.334,34.216Z" transform="translate(-290.661 -21.185)" opacity="0.1"/>
        <path id="Trazado_9" data-name="Trazado 9" d="M352.178,112.212V101.184s0,0,0,0h-2.639v11.834h3.44A.8.8,0,0,1,352.178,112.212Z" transform="translate(-293.505 -87.346)" opacity="0.1"/>
        <path id="Trazado_10" data-name="Trazado 10" d="M352.178,185.42V175h-2.639v11.222h3.44A.8.8,0,0,1,352.178,185.42Z" transform="translate(-293.505 -149.333)" opacity="0.1"/>
        <path id="Trazado_11" data-name="Trazado 11" d="M15.85,22.387H9.694A2.184,2.184,0,0,0,7.5,24.549V88.355a2.184,2.184,0,0,0,2.194,2.162H15.85Z" transform="translate(-6.298 -21.185)" fill="#f39600"/>
        <path id="Trazado_12" data-name="Trazado 12" d="M122.949,151.869V141.141a.689.689,0,0,0-.682-.685,5.591,5.591,0,1,1,4.125-9.53.7.7,0,0,0,.985,0,5.729,5.729,0,0,1,8.044,0,.7.7,0,0,0,.985,0,5.631,5.631,0,1,1,4.126,9.529.689.689,0,0,0-.682.685v10.728Z" transform="translate(-97.991 -110.94)" fill="#fff"/>
        <path id="Trazado_13" data-name="Trazado 13" d="M446.313,140.379h-6.238a.776.776,0,0,1-.12-.012v39.482h6.477V140.367A.778.778,0,0,1,446.313,140.379Z" transform="translate(-369.428 -120.252)" fill="#f6b142"/>
        <g id="Grupo_1" data-name="Grupo 1" transform="translate(69.847 1.292)">
          <path id="Trazado_14" data-name="Trazado 14" d="M443.544,40.982a.8.8,0,0,1-.8.8H436.5a.8.8,0,0,1-.8-.8V23.75a.8.8,0,0,1,.8-.8h6.238a.8.8,0,0,1,.8.8Z" transform="translate(-435.703 -22.948)" fill="#299fbc"/>
          <path id="Trazado_15" data-name="Trazado 15" d="M439.959,386.654c0,.007,0,.015,0,.022.109,3.1.759,5.807,1.74,7.24a.467.467,0,0,0,.385.2h2.226a.467.467,0,0,0,.385-.2c.981-1.433,1.631-4.14,1.74-7.24,0-.007,0-.015,0-.022Z" transform="translate(-439.276 -328.349)" fill="#299fbc"/>
        </g>
        <path id="Trazado_16" data-name="Trazado 16" d="M439.632,17.864h-1.184v-.412a2.006,2.006,0,0,0-2-2h-6.238a2.006,2.006,0,0,0-2,2V34.685a2,2,0,0,0,.682,1.5V74.956c0,.011,0,.021,0,.032s0,.022,0,.032c.118,3.368.828,6.24,1.95,7.878a1.666,1.666,0,0,0,1.288.721V85.3a1.2,1.2,0,0,0,2.4,0V83.619a1.667,1.667,0,0,0,1.288-.721c1.121-1.638,1.831-4.509,1.949-7.878,0-.01,0-.021,0-.031s0-.021,0-.032V36.187a2,2,0,0,0,.682-1.5v-5.2a1.2,1.2,0,0,0-2.4,0v4.8h-5.436V17.853h5.436v6.821a1.2,1.2,0,0,0,2.4,0V20.269h.783V36.318a1.2,1.2,0,1,0,2.4,0V19.868A2.006,2.006,0,0,0,439.632,17.864Zm-5.6,63.355h-1.407a14.181,14.181,0,0,1-1.295-5.523h4A14.186,14.186,0,0,1,434.029,81.22Zm-2.74-44.531h4.073v36.6h-4.073Z" transform="translate(-359.559 -15.359)"/>
        <path id="Trazado_17" data-name="Trazado 17" d="M64.533,14.887H3.4A3.384,3.384,0,0,0,0,18.252V82.057a3.384,3.384,0,0,0,3.4,3.365H4.789v4.6A2.093,2.093,0,0,0,5.93,91.886,2.14,2.14,0,0,0,8.1,91.762L10.883,89.9l3.174,1.973a2.139,2.139,0,0,0,2.139.067,2.1,2.1,0,0,0,1.11-1.847V85.422H63.5a2.294,2.294,0,0,0,2.3-2.283V52.525a2,2,0,0,0,.737-1.551V16.891A2.006,2.006,0,0,0,64.533,14.887ZM14.9,89.564l-3.408-2.119a1.2,1.2,0,0,0-1.3.022l-3,2.007V85.422H14.9Zm39.931-6.546H10.755V72.135a1.2,1.2,0,0,0-2.4,0V83.017H3.4a.977.977,0,0,1-.991-.96V18.252a.977.977,0,0,1,.991-.96H8.35V67.486a1.2,1.2,0,0,0,2.4,0V17.292H54.831Zm8.563,0H61.64V59.791a1.2,1.2,0,1,0-2.4,0V83.017h-2V52.978h2v1.683a1.2,1.2,0,1,0,2.4,0V52.978h1.755Zm.737-32.444h-6.9V41.757h6.9Zm0-11.222h-6.9V29.923h6.9Zm0-11.834h-6.9V17.292h6.9Z" transform="translate(0 -14.887)"/>
        <path id="Trazado_18" data-name="Trazado 18" d="M134.131,121.777a6.871,6.871,0,0,0-4.514,1.67,6.937,6.937,0,0,0-9.029,0,6.828,6.828,0,1,0-5.138,11.886V145.57a1.2,1.2,0,0,0,1.2,1.2h16.9a1.2,1.2,0,0,0,1.2-1.2V135.333a6.789,6.789,0,0,0-.623-13.556Zm.083,11.179a1.9,1.9,0,0,0-1.864,1.887v9.525h-3.306v-5.6a1.2,1.2,0,0,0-2.4,0v5.6h-3.074v-5.6a1.2,1.2,0,0,0-2.4,0v5.6h-3.306v-9.525a1.9,1.9,0,0,0-1.863-1.887,4.388,4.388,0,1,1,3.257-7.475,1.9,1.9,0,0,0,2.679,0,4.527,4.527,0,0,1,6.35,0,1.9,1.9,0,0,0,2.679,0,4.481,4.481,0,0,1,3.176-1.3,4.387,4.387,0,1,1,.083,8.774Z" transform="translate(-91.694 -104.642)"/>
        <path id="Trazado_19" data-name="Trazado 19" d="M166.31,327.666a1.2,1.2,0,0,0-1.2-1.2H147.649a1.2,1.2,0,1,0,0,2.4h17.458A1.2,1.2,0,0,0,166.31,327.666Z" transform="translate(-122.97 -276.516)"/>
        <path id="Trazado_20" data-name="Trazado 20" d="M165.612,360.5a1.2,1.2,0,1,0,0,2.4h11.7a1.2,1.2,0,1,0,0-2.4Z" transform="translate(-138.054 -305.098)"/>
        <path id="Trazado_21" data-name="Trazado 21" d="M453.861,235.656a1.2,1.2,0,0,0-1.2,1.2V248.18a1.2,1.2,0,1,0,2.4,0V236.858A1.2,1.2,0,0,0,453.861,235.656Z" transform="translate(-380.094 -200.265)"/>
        <path id="Trazado_22" data-name="Trazado 22" d="M453.861,200.69a1.2,1.2,0,0,0-1.2,1.2v1.215a1.2,1.2,0,0,0,2.4,0v-1.215A1.2,1.2,0,0,0,453.861,200.69Z" transform="translate(-380.094 -170.904)"/>
      </g>
    </g>
    <text id="Titulo" transform="translate(141 22)" fill="#707070" font-size="73" font-family="Raleway-ExtraBold, Raleway" font-weight="800" letter-spacing="0.033em"><tspan x="0" y="69">Titulo</tspan></text>
  </g>
</svg>
